STARTFONT 2.1
FONT -FontForge-Consolas-Book-R-Normal--44-420-75-75-M-240-ISO10646-1
SIZE 42 75 75
FONTBOUNDINGBOX 24 44 0 -9
COMMENT "Generated by fontforge, http://fontforge.sourceforge.net"
COMMENT "(c) 2025 Microsoft Corporation. All rights reserved."
STARTPROPERTIES 39
FOUNDRY "FontForge"
FAMILY_NAME "Consolas"
WEIGHT_NAME "Book"
SLANT "R"
SETWIDTH_NAME "Normal"
ADD_STYLE_NAME ""
PIXEL_SIZE 44
POINT_SIZE 420
RESOLUTION_X 75
RESOLUTION_Y 75
SPACING "M"
AVERAGE_WIDTH 240
CHARSET_REGISTRY "ISO10646"
CHARSET_ENCODING "1"
FONTNAME_REGISTRY ""
CHARSET_COLLECTIONS "ISO10646-1"
FONT_NAME "Consolas"
FACE_NAME "Consolas"
COPYRIGHT "(c) 2025 Microsoft Corporation. All rights reserved."
FONT_VERSION "7.01"
FONT_ASCENT 33
FONT_DESCENT 11
UNDERLINE_POSITION -7
UNDERLINE_THICKNESS 4
X_HEIGHT 21
CAP_HEIGHT 27
RAW_ASCENT 742
RAW_DESCENT 257
RELATIVE_WEIGHT 40
RELATIVE_SETWIDTH 50
SUPERSCRIPT_X 0
SUPERSCRIPT_Y 20
SUPERSCRIPT_SIZE 28
SUBSCRIPT_X 0
SUBSCRIPT_Y 6
SUBSCRIPT_SIZE 28
FIGURE_WIDTH 24
AVG_LOWERCASE_WIDTH 240
AVG_UPPERCASE_WIDTH 240
ENDPROPERTIES
CHARS 94
STARTCHAR exclam
ENCODING 33
SWIDTH 549 0
DWIDTH 24 0
BBX 6 31 9 0
BITMAP
78
78
78
78
78
78
78
78
78
78
78
78
78
78
78
78
78
78
78
78
38
38
00
00
00
78
FC
FC
FC
FC
78
ENDCHAR
STARTCHAR quotedbl
ENCODING 34
SWIDTH 549 0
DWIDTH 24 0
BBX 14 10 5 21
BITMAP
F87C
F87C
F87C
F87C
F87C
F87C
F87C
F87C
7038
7038
ENDCHAR
STARTCHAR numbersign
ENCODING 35
SWIDTH 549 0
DWIDTH 24 0
BBX 22 28 1 0
BITMAP
01C3C0
01C3C0
01C3C0
01C3C0
03C7C0
03C780
03C780
7FFFFC
7FFFFC
7FFFFC
038780
038780
038780
038780
078F00
078F00
078F00
FFFFF8
FFFFF8
FFFFF8
078F00
070F00
070F00
0F1E00
0F1E00
0F1E00
0F1E00
0F1E00
ENDCHAR
STARTCHAR dollar
ENCODING 36
SWIDTH 549 0
DWIDTH 24 0
BBX 19 37 3 -5
BITMAP
003800
003800
003800
003800
03FE00
0FFF80
3FFF80
7E7180
787000
F07000
F07000
F07000
F0F000
F8F000
7CE000
7FE000
1FE000
0FFC00
03FE00
00FF80
01FFC0
01C7C0
01C3E0
01C1E0
01C1E0
01C1E0
01C1E0
01C3C0
C3CFC0
FFFF80
FFFE00
3FF000
038000
038000
038000
078000
078000
ENDCHAR
STARTCHAR percent
ENCODING 37
SWIDTH 549 0
DWIDTH 24 0
BBX 24 31 0 0
BITMAP
07C00E
1FE01E
3FF03C
3CF838
787878
7878F0
7878E0
7879E0
7879C0
7CF380
3FF780
1FE700
0F8E00
001E00
001C00
003C00
007800
007000
00F0F8
01E3FC
01C7FE
03C79F
078F0F
070F0F
0F0F0F
0E0F0F
1C0F0F
3C0F9E
3807FE
7803FC
F001F0
ENDCHAR
STARTCHAR ampersand
ENCODING 38
SWIDTH 549 0
DWIDTH 24 0
BBX 23 31 1 0
BITMAP
01F800
07FE00
0FFF00
1F1F00
1E0F80
3C0780
3C0780
3C0780
3C0780
3C0F00
3E1F00
1F3E00
1FFC00
0FF800
07E000
0FC000
1FE078
3FF078
7CF878
787C78
F03CF0
F03EF0
F01FF0
F00FE0
F007E0
F803E0
7807E0
7E0FF0
3FFFF8
1FFC7C
07F03E
ENDCHAR
STARTCHAR quotesingle
ENCODING 39
SWIDTH 549 0
DWIDTH 24 0
BBX 5 10 10 21
BITMAP
F8
F8
F8
F8
F8
F8
F8
F8
70
70
ENDCHAR
STARTCHAR parenleft
ENCODING 40
SWIDTH 549 0
DWIDTH 24 0
BBX 12 41 6 -9
BITMAP
0040
00E0
01F0
01E0
03C0
0780
0F00
0F00
1E00
1E00
3C00
3C00
7800
7800
7800
7800
F000
F000
F000
F000
F000
F000
F000
F000
F000
F800
7800
7800
7800
3C00
3C00
3E00
1E00
0F00
0F80
0780
03C0
03E0
01F0
00E0
0040
ENDCHAR
STARTCHAR parenright
ENCODING 41
SWIDTH 549 0
DWIDTH 24 0
BBX 12 41 6 -9
BITMAP
2000
7000
F800
7C00
3C00
1E00
1F00
0F00
0780
0780
03C0
03C0
01E0
01E0
01E0
01F0
00F0
00F0
00F0
00F0
00F0
00F0
00F0
00F0
00F0
00E0
01E0
01E0
01E0
03C0
03C0
0780
0780
0F00
0F00
1E00
3C00
7C00
F800
7000
2000
ENDCHAR
STARTCHAR asterisk
ENCODING 42
SWIDTH 549 0
DWIDTH 24 0
BBX 17 18 3 13
BITMAP
01C000
01C000
01C000
41C100
71C700
F9CF80
3DFF00
0FFC00
07F000
03E000
0FF800
3FFE00
F9CF80
71C700
41C100
01C000
01C000
01C000
ENDCHAR
STARTCHAR plus
ENCODING 43
SWIDTH 549 0
DWIDTH 24 0
BBX 20 21 2 1
BITMAP
00F000
00F000
00F000
00F000
00F000
00F000
00F000
00F000
00F000
FFFFF0
FFFFF0
FFFFF0
00F000
00F000
00F000
00F000
00F000
00F000
00F000
00F000
00F000
ENDCHAR
STARTCHAR comma
ENCODING 44
SWIDTH 549 0
DWIDTH 24 0
BBX 11 14 5 -7
BITMAP
0780
0FC0
0FE0
0FE0
0FE0
07E0
03E0
03E0
03C0
07C0
0F80
FF00
FC00
F000
ENDCHAR
STARTCHAR hyphen
ENCODING 45
SWIDTH 549 0
DWIDTH 24 0
BBX 13 3 6 10
BITMAP
FFF8
FFF8
FFF8
ENDCHAR
STARTCHAR period
ENCODING 46
SWIDTH 549 0
DWIDTH 24 0
BBX 7 7 8 0
BITMAP
38
7C
FE
FE
FE
7C
38
ENDCHAR
STARTCHAR slash
ENCODING 47
SWIDTH 549 0
DWIDTH 24 0
BBX 18 36 2 -5
BITMAP
0001C0
0003C0
0003C0
000380
000780
000700
000F00
000E00
001E00
001E00
001C00
003C00
003800
007800
007800
007000
00F000
00E000
01E000
01C000
03C000
03C000
038000
078000
070000
0F0000
0F0000
0E0000
1E0000
1C0000
3C0000
380000
780000
780000
700000
F00000
ENDCHAR
STARTCHAR zero
ENCODING 48
SWIDTH 549 0
DWIDTH 24 0
BBX 21 28 2 0
BITMAP
01FC00
07FF00
0FFF80
1F07C0
3E03E0
3C01E0
7800F0
7800F0
7801F0
F003F8
F007F8
F01F78
F03E78
F07C78
F1F078
F3E078
F78078
FF0078
FE0078
F800F0
7800F0
7800F0
7C01E0
3E03E0
1F07C0
0FFF80
07FF00
01FC00
ENDCHAR
STARTCHAR one
ENCODING 49
SWIDTH 549 0
DWIDTH 24 0
BBX 18 28 3 0
BITMAP
00F000
03F000
0FF000
1EF000
7CF000
F8F000
60F000
40F000
00F000
00F000
00F000
00F000
00F000
00F000
00F000
00F000
00F000
00F000
00F000
00F000
00F000
00F000
00F000
00F000
00F000
7FFFC0
7FFFC0
7FFFC0
ENDCHAR
STARTCHAR two
ENCODING 50
SWIDTH 549 0
DWIDTH 24 0
BBX 19 28 3 0
BITMAP
07F000
1FFC00
7FFE00
F83F00
700F00
200F80
000780
000780
000780
000780
000780
000F00
000F00
001F00
003E00
007C00
00F800
01F000
03F000
03E000
07C000
0F8000
1F0000
3E0000
7C0000
FFFFE0
FFFFE0
FFFFE0
ENDCHAR
STARTCHAR three
ENCODING 51
SWIDTH 549 0
DWIDTH 24 0
BBX 18 28 4 0
BITMAP
1FF000
7FFC00
7FFE00
601F00
000F80
000780
000780
000780
000780
000F00
000F00
003E00
0FFC00
0FFC00
0FFF00
001F80
000780
0007C0
0003C0
0003C0
0003C0
0003C0
000780
000F80
C03F00
FFFE00
FFF800
3FE000
ENDCHAR
STARTCHAR four
ENCODING 52
SWIDTH 549 0
DWIDTH 24 0
BBX 22 28 1 0
BITMAP
001F80
001F80
003F80
007F80
007780
00F780
00E780
01E780
03C780
038780
078780
070780
0F0780
1E0780
1C0780
3C0780
780780
780780
F00780
FFFFFC
FFFFFC
FFFFFC
000780
000780
000780
000780
000780
000780
ENDCHAR
STARTCHAR five
ENCODING 53
SWIDTH 549 0
DWIDTH 24 0
BBX 17 28 4 0
BITMAP
FFFF00
FFFF00
FFFF00
F00000
F00000
F00000
F00000
F00000
F00000
F00000
F00000
FFE000
FFFC00
FFFE00
007F00
001F00
000F80
000780
000780
000780
000780
000F80
000F00
001E00
C07E00
FFFC00
FFF000
3F8000
ENDCHAR
STARTCHAR six
ENCODING 54
SWIDTH 549 0
DWIDTH 24 0
BBX 19 28 3 0
BITMAP
003F80
01FF80
07FF80
0FC000
1F0000
3E0000
3C0000
780000
780000
700000
F00000
F1FC00
F7FF00
FFFF80
FE0FC0
F803C0
F003E0
F001E0
F001E0
F001E0
F001E0
7801E0
7803C0
7C03C0
3E0F80
1FFF00
0FFE00
03F800
ENDCHAR
STARTCHAR seven
ENCODING 55
SWIDTH 549 0
DWIDTH 24 0
BBX 19 28 3 0
BITMAP
FFFFE0
FFFFE0
FFFFE0
0001E0
0003C0
0003C0
000780
000780
000F00
000F00
001E00
001E00
001E00
003C00
003C00
007800
007800
00F000
00F000
01E000
01E000
03C000
03C000
078000
078000
0F0000
0F0000
1E0000
ENDCHAR
STARTCHAR eight
ENCODING 56
SWIDTH 549 0
DWIDTH 24 0
BBX 19 28 3 0
BITMAP
03F800
0FFF00
1FFF80
3E0F80
7C07C0
7803C0
7803C0
7803C0
7803C0
3C0780
3E0F80
1F9F00
0FFC00
03F800
0FFE00
1F3F00
3E0F80
7807C0
7803E0
F001E0
F001E0
F001E0
F001E0
F803C0
7E0FC0
3FFF80
1FFF00
07F800
ENDCHAR
STARTCHAR nine
ENCODING 57
SWIDTH 549 0
DWIDTH 24 0
BBX 19 28 2 0
BITMAP
03F800
0FFE00
1FFF00
3E0F80
7C0780
7803C0
F003C0
F001C0
F001E0
F001E0
F001E0
F801E0
7803E0
7E0FE0
3FFFE0
1FFDE0
07F1E0
0001E0
0003C0
0003C0
0003C0
000780
000F80
001F00
007E00
3FFC00
3FF000
3F8000
ENDCHAR
STARTCHAR colon
ENCODING 58
SWIDTH 549 0
DWIDTH 24 0
BBX 7 22 9 0
BITMAP
38
7C
FE
FE
FE
7C
38
00
00
00
00
00
00
00
00
38
7C
FE
FE
FE
7C
38
ENDCHAR
STARTCHAR semicolon
ENCODING 59
SWIDTH 549 0
DWIDTH 24 0
BBX 11 29 5 -7
BITMAP
0380
07C0
0FE0
0FE0
0FE0
07C0
0380
0000
0000
0000
0000
0000
0000
0000
0000
0780
0FC0
0FE0
0FE0
0FE0
07E0
03E0
03E0
03C0
07C0
0F80
FF00
FC00
F000
ENDCHAR
STARTCHAR less
ENCODING 60
SWIDTH 549 0
DWIDTH 24 0
BBX 17 24 3 0
BITMAP
000200
000700
000F80
003F00
007C00
00F800
01F000
07E000
0F8000
1F0000
3E0000
7C0000
FC0000
3E0000
1F0000
0F8000
07E000
01F000
00F800
007C00
003F00
000F80
000700
000200
ENDCHAR
STARTCHAR equal
ENCODING 61
SWIDTH 549 0
DWIDTH 24 0
BBX 18 10 3 7
BITMAP
FFFFC0
FFFFC0
FFFFC0
000000
000000
000000
000000
FFFFC0
FFFFC0
FFFFC0
ENDCHAR
STARTCHAR greater
ENCODING 62
SWIDTH 549 0
DWIDTH 24 0
BBX 17 24 4 0
BITMAP
200000
700000
F80000
7E0000
1F0000
0F8000
07C000
03F000
00F800
007C00
003E00
001F80
001F00
003E00
007C00
00F800
03F000
07C000
0F8000
1F0000
7E0000
F80000
700000
200000
ENDCHAR
STARTCHAR question
ENCODING 63
SWIDTH 549 0
DWIDTH 24 0
BBX 13 31 7 0
BITMAP
F800
FF00
FF80
0FC0
03E0
01F0
00F0
0078
0078
0078
0078
0078
00F8
01F0
3FF0
3FE0
3F80
3C00
3C00
3C00
3C00
3C00
0000
0000
0000
3C00
7E00
7E00
7E00
7E00
3C00
ENDCHAR
STARTCHAR at
ENCODING 64
SWIDTH 549 0
DWIDTH 24 0
BBX 24 40 0 -9
BITMAP
001F80
007FE0
01E0F0
03C038
07801C
07001C
0E000E
1E000E
1C000E
1C000E
380007
381EE7
787FE7
707FE7
70F3E7
71E1E7
71E1E7
E1E1C7
E1C1C7
E3C1C7
E3C1C7
E3C1C7
E3C1C7
E3C1CE
E3C3CE
E3C3CE
E3E7CE
E1FEFC
E1FCF8
E0F870
700000
700000
700000
780000
380000
3C0000
1E0040
0F03C0
07FFC0
01FE00
ENDCHAR
STARTCHAR A
ENCODING 65
SWIDTH 549 0
DWIDTH 24 0
BBX 23 28 1 0
BITMAP
007C00
007E00
00FE00
00EE00
01EF00
01EF00
01C700
03C780
03C780
038380
0783C0
0783C0
0703C0
0F01E0
0F01E0
0E01E0
1E00F0
1E00F0
1E00F0
3FFFF8
3FFFF8
3FFFF8
78003C
78003C
78003C
F0001E
F0001E
F0001E
ENDCHAR
STARTCHAR B
ENCODING 66
SWIDTH 549 0
DWIDTH 24 0
BBX 18 28 3 0
BITMAP
FFF000
FFFC00
FFFF00
F01F00
F00F80
F00780
F00780
F00780
F00780
F00780
F00F00
F03E00
FFFC00
FFFC00
FFFF00
F01F80
F00780
F007C0
F003C0
F003C0
F003C0
F003C0
F007C0
F00780
F01F00
FFFE00
FFFC00
FFF000
ENDCHAR
STARTCHAR C
ENCODING 67
SWIDTH 549 0
DWIDTH 24 0
BBX 19 28 2 0
BITMAP
007F00
03FFC0
07FFE0
0F80E0
1F0020
3E0000
3C0000
780000
780000
780000
F00000
F00000
F00000
F00000
F00000
F00000
F00000
F00000
F00000
780000
780000
7C0000
3C0000
3E0020
1F80E0
0FFFE0
07FFC0
00FF00
ENDCHAR
STARTCHAR D
ENCODING 68
SWIDTH 549 0
DWIDTH 24 0
BBX 20 28 2 0
BITMAP
FFF000
FFFC00
FFFF00
F01F80
F007C0
F003C0
F001E0
F001E0
F001E0
F000F0
F000F0
F000F0
F000F0
F000F0
F000F0
F000F0
F000F0
F000F0
F001E0
F001E0
F001E0
F003C0
F007C0
F00F80
F03F00
FFFE00
FFF800
FFE000
ENDCHAR
STARTCHAR E
ENCODING 69
SWIDTH 549 0
DWIDTH 24 0
BBX 16 28 4 0
BITMAP
FFFF
FFFF
FFFF
F000
F000
F000
F000
F000
F000
F000
F000
F000
FFFF
FFFF
FFFF
F000
F000
F000
F000
F000
F000
F000
F000
F000
F000
FFFF
FFFF
FFFF
ENDCHAR
STARTCHAR F
ENCODING 70
SWIDTH 549 0
DWIDTH 24 0
BBX 16 28 4 0
BITMAP
FFFF
FFFF
FFFF
F000
F000
F000
F000
F000
F000
F000
F000
F000
F000
FFFE
FFFE
FFFE
F000
F000
F000
F000
F000
F000
F000
F000
F000
F000
F000
F000
ENDCHAR
STARTCHAR G
ENCODING 71
SWIDTH 549 0
DWIDTH 24 0
BBX 21 28 1 0
BITMAP
003FC0
01FFF0
07FFF8
0FE078
1F0008
3E0000
3C0000
7C0000
780000
780000
F00000
F00000
F01FF8
F01FF8
F01FF8
F00078
F00078
F00078
F80078
780078
780078
7C0078
3E0078
1F0078
1FC078
07FFF8
03FFF8
007F80
ENDCHAR
STARTCHAR H
ENCODING 72
SWIDTH 549 0
DWIDTH 24 0
BBX 20 28 2 0
BITMAP
F000F0
F000F0
F000F0
F000F0
F000F0
F000F0
F000F0
F000F0
F000F0
F000F0
F000F0
F000F0
FFFFF0
FFFFF0
FFFFF0
F000F0
F000F0
F000F0
F000F0
F000F0
F000F0
F000F0
F000F0
F000F0
F000F0
F000F0
F000F0
F000F0
ENDCHAR
STARTCHAR I
ENCODING 73
SWIDTH 549 0
DWIDTH 24 0
BBX 16 28 4 0
BITMAP
FFFF
FFFF
FFFF
03C0
03C0
03C0
03C0
03C0
03C0
03C0
03C0
03C0
03C0
03C0
03C0
03C0
03C0
03C0
03C0
03C0
03C0
03C0
03C0
03C0
03C0
FFFF
FFFF
FFFF
ENDCHAR
STARTCHAR J
ENCODING 74
SWIDTH 549 0
DWIDTH 24 0
BBX 15 28 4 0
BITMAP
FFFE
FFFE
FFFE
001E
001E
001E
001E
001E
001E
001E
001E
001E
001E
001E
001E
001E
001E
001E
001E
001E
001E
001E
003C
803C
E0FC
FFF8
7FF0
1F80
ENDCHAR
STARTCHAR K
ENCODING 75
SWIDTH 549 0
DWIDTH 24 0
BBX 19 28 3 0
BITMAP
F003C0
F00780
F00F80
F01F00
F01E00
F03C00
F07800
F0F800
F0F000
F1E000
F3C000
F78000
F78000
FF0000
FF8000
F78000
F3C000
F1E000
F1F000
F0F800
F07C00
F03C00
F01E00
F01F00
F00F80
F007C0
F003E0
F001E0
ENDCHAR
STARTCHAR L
ENCODING 76
SWIDTH 549 0
DWIDTH 24 0
BBX 16 28 5 0
BITMAP
F000
F000
F000
F000
F000
F000
F000
F000
F000
F000
F000
F000
F000
F000
F000
F000
F000
F000
F000
F000
F000
F000
F000
F000
F000
FFFF
FFFF
FFFF
ENDCHAR
STARTCHAR M
ENCODING 77
SWIDTH 549 0
DWIDTH 24 0
BBX 22 28 1 0
BITMAP
3C00F8
3E01F8
3E01F8
7E01F8
7F03B8
7703B8
7703B8
738738
738738
738738
71CE38
71CE38
71CC38
70FC38
70FC38
70F838
707838
707838
707038
700038
700038
700038
70003C
70003C
70003C
F0003C
F0003C
F0003C
ENDCHAR
STARTCHAR N
ENCODING 78
SWIDTH 549 0
DWIDTH 24 0
BBX 19 28 3 0
BITMAP
F801E0
FC01E0
FC01E0
FE01E0
FE01E0
F701E0
F701E0
F781E0
F381E0
F381E0
F3C1E0
F1C1E0
F1E1E0
F0E1E0
F0F1E0
F071E0
F071E0
F079E0
F039E0
F03DE0
F01DE0
F01DE0
F01FE0
F00FE0
F00FE0
F007E0
F007E0
F007E0
ENDCHAR
STARTCHAR O
ENCODING 79
SWIDTH 549 0
DWIDTH 24 0
BBX 22 28 1 0
BITMAP
00FE00
03FF80
0FFFC0
1F03E0
3E01F0
3C00F0
7C0078
780078
780078
F0003C
F0003C
F0003C
F0003C
F0003C
F0003C
F0003C
F0003C
F0003C
F0003C
780078
780078
7800F8
3C00F0
3E01E0
1F07E0
0FFFC0
07FF00
01FC00
ENDCHAR
STARTCHAR P
ENCODING 80
SWIDTH 549 0
DWIDTH 24 0
BBX 18 28 3 0
BITMAP
FFF000
FFFC00
FFFF00
F01F00
F00F80
F007C0
F003C0
F003C0
F003C0
F003C0
F003C0
F003C0
F00780
F00F80
F03F00
FFFE00
FFF800
FFE000
F00000
F00000
F00000
F00000
F00000
F00000
F00000
F00000
F00000
F00000
ENDCHAR
STARTCHAR Q
ENCODING 81
SWIDTH 549 0
DWIDTH 24 0
BBX 23 36 1 -8
BITMAP
00FE00
03FF80
0FFFC0
1F03E0
1E01F0
3C00F0
780078
780078
780078
F0003C
F0003C
F0003C
F0003C
F0003C
F0003C
F0003C
F0003C
F0003C
F0003C
F80078
780078
7800F8
7C00F0
3E01F0
1F07E0
0FFFC0
07FF80
01FE00
007800
007800
007C00
003C04
003E0E
001FFE
000FF8
0003F0
ENDCHAR
STARTCHAR R
ENCODING 82
SWIDTH 549 0
DWIDTH 24 0
BBX 19 28 4 0
BITMAP
FFF000
FFFC00
FFFE00
F03F00
F00F80
F00780
F00780
F00780
F00780
F00F80
F00F00
F03F00
FFFE00
FFF800
FFF000
F0F800
F07800
F03C00
F01C00
F01E00
F01E00
F00F00
F00F00
F00780
F00780
F003C0
F003C0
F003E0
ENDCHAR
STARTCHAR S
ENCODING 83
SWIDTH 549 0
DWIDTH 24 0
BBX 19 28 3 0
BITMAP
03FE00
0FFF80
3FFF80
7E0180
780000
F00000
F00000
F00000
F00000
F80000
7C0000
7F8000
1FE000
0FFC00
03FE00
007F80
001FC0
0007C0
0003E0
0001E0
0001E0
0001E0
0001E0
0003C0
C00FC0
FFFF80
FFFE00
3FF800
ENDCHAR
STARTCHAR T
ENCODING 84
SWIDTH 549 0
DWIDTH 24 0
BBX 20 28 2 0
BITMAP
FFFFF0
FFFFF0
FFFFF0
00F000
00F000
00F000
00F000
00F000
00F000
00F000
00F000
00F000
00F000
00F000
00F000
00F000
00F000
00F000
00F000
00F000
00F000
00F000
00F000
00F000
00F000
00F000
00F000
00F000
ENDCHAR
STARTCHAR U
ENCODING 85
SWIDTH 549 0
DWIDTH 24 0
BBX 20 28 2 0
BITMAP
F000F0
F000F0
F000F0
F000F0
F000F0
F000F0
F000F0
F000F0
F000F0
F000F0
F000F0
F000F0
F000F0
F000F0
F000F0
F000F0
F000F0
F000F0
F000F0
F000F0
F000F0
F000F0
7801E0
7C03E0
7E07C0
3FFF80
0FFF00
03FC00
ENDCHAR
STARTCHAR V
ENCODING 86
SWIDTH 549 0
DWIDTH 24 0
BBX 23 28 1 0
BITMAP
F0001E
F0001E
F8001E
78003C
78003C
7C003C
3C0078
3C0078
3E0078
1E00F0
1E00F0
1E00F0
0F01E0
0F01E0
0F01E0
0783C0
0783C0
078380
03C780
03C780
03C700
01EF00
01EF00
01EE00
00FE00
00FE00
00FC00
007C00
ENDCHAR
STARTCHAR W
ENCODING 87
SWIDTH 549 0
DWIDTH 24 0
BBX 22 28 1 0
BITMAP
F0003C
F0003C
F0003C
F0003C
F0003C
F0003C
F0003C
700038
700038
703838
787838
787838
787838
78FC38
78FC78
78FC78
78CE78
79CE78
79CE78
79CF78
7B8778
3B8770
3B87F0
3F03F0
3F03F0
3F03F0
3E01F0
3E01F0
ENDCHAR
STARTCHAR X
ENCODING 88
SWIDTH 549 0
DWIDTH 24 0
BBX 23 28 0 0
BITMAP
7C003E
3C003C
1E0078
1F00F8
0F00F0
0F81E0
07C3E0
03C3C0
03E780
01EF80
01FF00
00FF00
007E00
007C00
007E00
00FE00
00FF00
01FF00
03EF80
03C7C0
07C3C0
0F83E0
0F01F0
1F01F0
3E00F8
3C0078
7C007C
F8003E
ENDCHAR
STARTCHAR Y
ENCODING 89
SWIDTH 549 0
DWIDTH 24 0
BBX 24 28 0 0
BITMAP
F0000F
78001E
78001E
3C003C
3E003C
1E0078
0F00F0
0F00F0
0781E0
07C1E0
03C3C0
03E3C0
01E780
01F780
00FF00
007E00
007E00
003C00
003C00
003C00
003C00
003C00
003C00
003C00
003C00
003C00
003C00
003C00
ENDCHAR
STARTCHAR Z
ENCODING 90
SWIDTH 549 0
DWIDTH 24 0
BBX 20 28 2 0
BITMAP
FFFFE0
FFFFE0
FFFFE0
0003C0
000780
000780
000F00
000F00
001E00
003C00
003C00
007800
00F800
00F000
01E000
01E000
03C000
078000
078000
0F0000
1F0000
1E0000
3C0000
3C0000
780000
FFFFF0
FFFFF0
FFFFF0
ENDCHAR
STARTCHAR bracketleft
ENCODING 91
SWIDTH 549 0
DWIDTH 24 0
BBX 11 40 7 -9
BITMAP
FFE0
FFE0
FFE0
F000
F000
F000
F000
F000
F000
F000
F000
F000
F000
F000
F000
F000
F000
F000
F000
F000
F000
F000
F000
F000
F000
F000
F000
F000
F000
F000
F000
F000
F000
F000
F000
F000
F000
FFE0
FFE0
FFE0
ENDCHAR
STARTCHAR backslash
ENCODING 92
SWIDTH 549 0
DWIDTH 24 0
BBX 18 36 3 -5
BITMAP
F00000
700000
780000
780000
380000
3C0000
1C0000
1E0000
0E0000
0F0000
0F0000
070000
078000
038000
03C000
03C000
01C000
01E000
00E000
00F000
007000
007800
007800
003800
003C00
001C00
001E00
001E00
000E00
000F00
000700
000780
000380
0003C0
0003C0
0001C0
ENDCHAR
STARTCHAR bracketright
ENCODING 93
SWIDTH 549 0
DWIDTH 24 0
BBX 11 40 6 -9
BITMAP
FFE0
FFE0
FFE0
01E0
01E0
01E0
01E0
01E0
01E0
01E0
01E0
01E0
01E0
01E0
01E0
01E0
01E0
01E0
01E0
01E0
01E0
01E0
01E0
01E0
01E0
01E0
01E0
01E0
01E0
01E0
01E0
01E0
01E0
01E0
01E0
01E0
01E0
FFE0
FFE0
FFE0
ENDCHAR
STARTCHAR asciicircum
ENCODING 94
SWIDTH 549 0
DWIDTH 24 0
BBX 18 14 3 14
BITMAP
01C000
03E000
03F000
077000
077800
0E3800
0E3C00
1C1E00
3C1E00
3C0F00
780700
780780
F003C0
F003C0
ENDCHAR
STARTCHAR underscore
ENCODING 95
SWIDTH 549 0
DWIDTH 24 0
BBX 24 3 0 -9
BITMAP
FFFFFF
FFFFFF
FFFFFF
ENDCHAR
STARTCHAR grave
ENCODING 96
SWIDTH 549 0
DWIDTH 24 0
BBX 9 5 5 26
BITMAP
F800
7C00
3E00
0F00
0780
ENDCHAR
STARTCHAR a
ENCODING 97
SWIDTH 549 0
DWIDTH 24 0
BBX 18 22 3 0
BITMAP
03F800
1FFE00
3FFF80
3C0F80
2007C0
0003C0
0003C0
0003C0
0003C0
07FFC0
1FFFC0
3FFFC0
7C03C0
F803C0
F003C0
F003C0
F007C0
F00FC0
F83FC0
7FFFC0
3FF3C0
0FC3C0
ENDCHAR
STARTCHAR b
ENCODING 98
SWIDTH 549 0
DWIDTH 24 0
BBX 19 31 3 0
BITMAP
F00000
F00000
F00000
F00000
F00000
F00000
F00000
F00000
F00000
F0FC00
F3FF00
F7FF80
FF0F80
FE07C0
FC03C0
F803E0
F001E0
F001E0
F001E0
F001E0
F001E0
F001E0
F001E0
F001E0
F003C0
F003C0
F00780
F81F00
FFFF00
FFFC00
1FF000
ENDCHAR
STARTCHAR c
ENCODING 99
SWIDTH 549 0
DWIDTH 24 0
BBX 17 22 3 0
BITMAP
01FF00
07FF80
0FFF80
1F0180
3E0000
7C0000
780000
F80000
F00000
F00000
F00000
F00000
F00000
F00000
F00000
780000
780000
7C0000
3F0180
1FFF80
0FFF80
01FE00
ENDCHAR
STARTCHAR d
ENCODING 100
SWIDTH 549 0
DWIDTH 24 0
BBX 19 31 2 0
BITMAP
0001E0
0001E0
0001E0
0001E0
0001E0
0001E0
0001E0
0001E0
0001E0
01FFE0
07FFE0
1FFFE0
3F03E0
3C01E0
7801E0
7801E0
F001E0
F001E0
F001E0
F001E0
F001E0
F001E0
F001E0
F001E0
F003E0
7807E0
780FE0
3E3FE0
3FFDE0
1FF1E0
07C1E0
ENDCHAR
STARTCHAR e
ENCODING 101
SWIDTH 549 0
DWIDTH 24 0
BBX 19 22 3 0
BITMAP
01F800
07FE00
1FFF00
3E0F80
3C07C0
7803C0
7801E0
F001E0
F001E0
FFFFE0
FFFFE0
FFFFE0
F00000
F00000
F00000
780000
780000
7C0000
3F00C0
1FFFC0
0FFFC0
03FF00
ENDCHAR
STARTCHAR f
ENCODING 102
SWIDTH 549 0
DWIDTH 24 0
BBX 20 31 2 0
BITMAP
000FE0
003FF0
007FF0
00F830
00F000
01E000
01E000
01E000
01E000
01E000
01E000
01E000
FFFFE0
FFFFE0
FFFFE0
01E000
01E000
01E000
01E000
01E000
01E000
01E000
01E000
01E000
01E000
01E000
01E000
01E000
01E000
01E000
01E000
ENDCHAR
STARTCHAR g
ENCODING 103
SWIDTH 549 0
DWIDTH 24 0
BBX 20 31 2 -9
BITMAP
03FFF0
0FFFF0
1FFFF0
3E0F80
3C07C0
7803C0
7803C0
7803C0
7803C0
7803C0
3C0780
3E0F80
1FFF00
3FFE00
3BF800
780000
780000
780000
7E0000
3FFF00
3FFFC0
3FFFE0
7801F0
F000F0
F000F0
F000F0
F001F0
FC07E0
7FFFC0
3FFF80
07FC00
ENDCHAR
STARTCHAR h
ENCODING 104
SWIDTH 549 0
DWIDTH 24 0
BBX 18 31 3 0
BITMAP
F00000
F00000
F00000
F00000
F00000
F00000
F00000
F00000
F00000
F0FC00
F3FF00
F7FF80
FF0F80
FE07C0
FC03C0
F803C0
F003C0
F003C0
F003C0
F003C0
F003C0
F003C0
F003C0
F003C0
F003C0
F003C0
F003C0
F003C0
F003C0
F003C0
F003C0
ENDCHAR
STARTCHAR i
ENCODING 105
SWIDTH 549 0
DWIDTH 24 0
BBX 17 31 4 0
BITMAP
03C000
07E000
07E000
07E000
07E000
03C000
000000
000000
000000
7FE000
7FE000
7FE000
01E000
01E000
01E000
01E000
01E000
01E000
01E000
01E000
01E000
01E000
01E000
01E000
01E000
01E000
01E000
01E000
FFFF80
FFFF80
FFFF80
ENDCHAR
STARTCHAR j
ENCODING 106
SWIDTH 549 0
DWIDTH 24 0
BBX 16 40 3 -9
BITMAP
001E
003F
003F
003F
003F
001E
0000
0000
0000
7FFE
7FFE
7FFE
001E
001E
001E
001E
001E
001E
001E
001E
001E
001E
001E
001E
001E
001E
001E
001E
001E
001E
001E
001E
001E
001E
003C
003C
C0F8
FFF8
FFE0
3F80
ENDCHAR
STARTCHAR k
ENCODING 107
SWIDTH 549 0
DWIDTH 24 0
BBX 19 31 4 0
BITMAP
F00000
F00000
F00000
F00000
F00000
F00000
F00000
F00000
F00000
F007C0
F00F80
F01F00
F03E00
F07C00
F0F800
F1F000
F3E000
F7C000
FF8000
FF0000
F78000
F3C000
F1E000
F0F000
F0F800
F07C00
F03E00
F01F00
F00F80
F007C0
F003E0
ENDCHAR
STARTCHAR l
ENCODING 108
SWIDTH 549 0
DWIDTH 24 0
BBX 17 31 4 0
BITMAP
7FE000
7FE000
7FE000
01E000
01E000
01E000
01E000
01E000
01E000
01E000
01E000
01E000
01E000
01E000
01E000
01E000
01E000
01E000
01E000
01E000
01E000
01E000
01E000
01E000
01E000
01E000
01E000
01E000
FFFF80
FFFF80
FFFF80
ENDCHAR
STARTCHAR m
ENCODING 109
SWIDTH 549 0
DWIDTH 24 0
BBX 20 22 2 0
BITMAP
E3C3C0
E7E7E0
EFEFE0
ECECF0
F8F8F0
F8F8F0
F8F8F0
F0F0F0
F0F0F0
F0F0F0
F0F0F0
F0F0F0
F0F0F0
F0F0F0
F0F0F0
F0F0F0
F0F0F0
F0F0F0
F0F0F0
F0F0F0
F0F0F0
F0F0F0
ENDCHAR
STARTCHAR n
ENCODING 110
SWIDTH 549 0
DWIDTH 24 0
BBX 18 22 3 0
BITMAP
F0FC00
F3FF00
F7FF80
FF0F80
FE07C0
FC03C0
F803C0
F003C0
F003C0
F003C0
F003C0
F003C0
F003C0
F003C0
F003C0
F003C0
F003C0
F003C0
F003C0
F003C0
F003C0
F003C0
ENDCHAR
STARTCHAR o
ENCODING 111
SWIDTH 549 0
DWIDTH 24 0
BBX 20 22 2 0
BITMAP
01FC00
07FF00
1FFF80
3F0FC0
3C03E0
7801E0
7801E0
F000F0
F000F0
F000F0
F000F0
F000F0
F000F0
F000F0
F000F0
7801E0
7801E0
7C03C0
3F0FC0
1FFF80
0FFE00
03F800
ENDCHAR
STARTCHAR p
ENCODING 112
SWIDTH 549 0
DWIDTH 24 0
BBX 19 31 3 -9
BITMAP
F0FC00
F3FF00
F7FF80
FF0F80
FE07C0
FC03C0
F803E0
F001E0
F001E0
F001E0
F001E0
F001E0
F001E0
F001E0
F001E0
F003C0
F003C0
F00780
F81F80
FFFF00
FFFC00
FFF000
F00000
F00000
F00000
F00000
F00000
F00000
F00000
F00000
F00000
ENDCHAR
STARTCHAR q
ENCODING 113
SWIDTH 549 0
DWIDTH 24 0
BBX 19 31 2 -9
BITMAP
01FEE0
07FFE0
1FFFE0
3F03E0
3C01E0
7801E0
7801E0
F001E0
F001E0
F001E0
F001E0
F001E0
F001E0
F001E0
F001E0
F803E0
7807E0
7C0FE0
3E3FE0
3FFDE0
1FF9E0
07E1E0
0001E0
0001E0
0001E0
0001E0
0001E0
0001E0
0001E0
0001E0
0001E0
ENDCHAR
STARTCHAR r
ENCODING 114
SWIDTH 549 0
DWIDTH 24 0
BBX 18 22 4 0
BITMAP
F07C00
F3FF00
F7FF80
FF0F80
FE07C0
FC03C0
F803C0
F003C0
F00000
F00000
F00000
F00000
F00000
F00000
F00000
F00000
F00000
F00000
F00000
F00000
F00000
F00000
ENDCHAR
STARTCHAR s
ENCODING 115
SWIDTH 549 0
DWIDTH 24 0
BBX 17 22 4 0
BITMAP
07FC00
1FFF00
3FFF00
7C0300
F00000
F00000
F00000
F80000
7E0000
7FC000
1FF800
0FFE00
00FF00
001F80
000F80
000780
000780
000780
C01F00
FFFE00
FFFC00
3FF000
ENDCHAR
STARTCHAR t
ENCODING 116
SWIDTH 549 0
DWIDTH 24 0
BBX 19 29 1 0
BITMAP
00C000
03C000
03C000
03C000
03C000
03C000
03C000
FFFFE0
FFFFE0
FFFFE0
03C000
03C000
03C000
03C000
03C000
03C000
03C000
03C000
03C000
03C000
03C000
03C000
03C000
03C000
03E000
01F020
01FFE0
00FFE0
003FC0
ENDCHAR
STARTCHAR u
ENCODING 117
SWIDTH 549 0
DWIDTH 24 0
BBX 18 22 3 0
BITMAP
F003C0
F003C0
F003C0
F003C0
F003C0
F003C0
F003C0
F003C0
F003C0
F003C0
F003C0
F003C0
F003C0
F003C0
F003C0
F007C0
F00FC0
F81FC0
7C3FC0
7FFBC0
3FF3C0
0FC3C0
ENDCHAR
STARTCHAR v
ENCODING 118
SWIDTH 549 0
DWIDTH 24 0
BBX 21 22 2 0
BITMAP
F00078
F00078
F800F0
7800F0
7800F0
3C01E0
3C01E0
3E01C0
1E03C0
1E03C0
0F0780
0F0780
0F0700
078F00
078F00
038E00
03DE00
03DC00
01DC00
01FC00
00F800
00F800
ENDCHAR
STARTCHAR w
ENCODING 119
SWIDTH 549 0
DWIDTH 24 0
BBX 21 22 1 0
BITMAP
E00038
E00038
E00038
F00038
F00078
F07078
F07078
707878
70F878
70F870
78DC70
79DC70
79DC70
39CE70
398E70
3B8F70
3B8770
3B0770
3F07E0
3F03E0
1F03E0
1E03E0
ENDCHAR
STARTCHAR x
ENCODING 120
SWIDTH 549 0
DWIDTH 24 0
BBX 21 22 2 0
BITMAP
F800F8
7C01F0
3C01E0
1E03C0
1F07C0
0F0F80
078F00
07DF00
03FE00
01FC00
00F800
00F800
01FC00
03FC00
03DE00
078F00
0F8F80
1F07C0
1E03C0
3E03E0
7C01F0
F800F8
ENDCHAR
STARTCHAR y
ENCODING 121
SWIDTH 549 0
DWIDTH 24 0
BBX 21 31 1 -9
BITMAP
780078
780078
7C0078
3C00F0
3C00F0
1E00E0
1E01E0
1F01E0
0F01C0
0F03C0
0783C0
078380
038780
03C780
03C700
01EF00
01EE00
00EE00
00FE00
00FC00
007C00
007C00
007800
007800
00F000
01F000
03E000
07C000
FF8000
FF0000
FC0000
ENDCHAR
STARTCHAR z
ENCODING 122
SWIDTH 549 0
DWIDTH 24 0
BBX 18 22 4 0
BITMAP
FFFF80
FFFF80
FFFF80
000F00
001E00
001E00
003C00
007800
00F000
00F000
01E000
03C000
078000
078000
0F0000
1E0000
1E0000
3C0000
780000
FFFFC0
FFFFC0
FFFFC0
ENDCHAR
STARTCHAR braceleft
ENCODING 123
SWIDTH 549 0
DWIDTH 24 0
BBX 16 40 4 -9
BITMAP
001F
007F
01FF
01F0
03E0
03C0
03C0
03C0
03C0
03C0
03C0
03C0
03C0
03C0
03C0
07C0
0F80
FF00
FC00
FF00
0F80
07C0
03C0
03C0
03C0
03C0
03C0
03C0
03C0
03C0
03C0
03C0
03C0
03C0
03C0
03E0
01F0
00FF
007F
001F
ENDCHAR
STARTCHAR bar
ENCODING 124
SWIDTH 549 0
DWIDTH 24 0
BBX 4 44 10 -9
BITMAP
F0
F0
F0
F0
F0
F0
F0
F0
F0
F0
F0
F0
F0
F0
F0
F0
F0
F0
F0
F0
F0
F0
F0
F0
F0
F0
F0
F0
F0
F0
F0
F0
F0
F0
F0
F0
F0
F0
F0
F0
F0
F0
F0
F0
ENDCHAR
STARTCHAR braceright
ENCODING 125
SWIDTH 549 0
DWIDTH 24 0
BBX 16 40 5 -9
BITMAP
F800
FE00
FF00
0F80
07C0
03C0
03C0
03C0
03C0
03C0
03C0
03C0
03C0
03C0
03C0
03E0
01F0
00FF
003F
00FF
01F0
03E0
03C0
03C0
03C0
03C0
03C0
03C0
03C0
03C0
03C0
03C0
03C0
03C0
03C0
07C0
0F80
FF00
FE00
F800
ENDCHAR
STARTCHAR asciitilde
ENCODING 126
SWIDTH 549 0
DWIDTH 24 0
BBX 22 9 1 7
BITMAP
0F0000
3FC03C
7FE03C
78F03C
F0783C
F03C78
F01FF8
F00FF0
0003C0
ENDCHAR
ENDFONT
